<svg width="254" height="58" viewBox="0 0 254 58" fill="none" xmlns="http://www.w3.org/2000/svg">
<path d="M248.306 8.6103L198.413 18.6757C198.062 18.746 197.769 18.3412 197.769 17.8829C197.772 17.7618 197.793 17.642 197.832 17.5284C198.885 14.7185 197.502 11.3366 195.24 11.1727L142.693 7.69374C141.676 7.62787 140.661 7.83717 139.738 8.30255L139.341 8.54005C135.345 10.8816 132.256 15.4945 130.851 21.228L130.451 22.9006C130.234 23.9168 129.866 24.8883 129.36 25.7774C129.167 26.085 128.908 26.3372 128.604 26.5121C128.3 26.6871 127.961 26.7793 127.617 26.7809H126.977C126.629 26.7785 126.287 26.6838 125.981 26.5052C125.676 26.3267 125.416 26.0698 125.224 25.7573C124.728 24.8648 124.364 23.8941 124.146 22.8805L123.745 21.208C122.341 15.4745 119.252 10.8549 115.256 8.51998L114.855 8.28248C113.934 7.81711 112.919 7.60779 111.903 7.67367L59.3503 11.1827C57.0851 11.3366 55.693 14.7185 56.7464 17.5384C56.7951 17.6552 56.8205 17.7817 56.821 17.9097C56.821 18.3646 56.5289 18.756 56.1777 18.6858L6.28756 8.6103C5.61017 8.4765 5.5387 7.17191 6.1788 6.8675L9.88576 5.17822C11.3718 4.48619 12.9657 4.1015 14.5839 4.04423L127.291 0L240.01 4.04423C241.628 4.10441 243.221 4.48898 244.708 5.17822L248.415 6.8675C249.055 7.17191 248.971 8.4765 248.306 8.6103Z" fill="white"/>
<path d="M7.1754 10.5934L54.4058 21.2509C56.9164 21.8162 59.1879 23.666 60.7757 26.4391L61.6146 27.9043C64.29 32.5874 68.7613 34.4473 72.8318 32.5874L99.2653 20.2105C100.263 19.7088 100.884 20.6053 99.8091 21.3178L54.9029 49.4166C51.022 51.9121 46.4823 51.3234 42.9928 47.8712L6.75592 12.0418C6.24944 11.5567 6.57259 10.4495 7.1754 10.5934Z" fill="white"/>
<path d="M247.412 10.5934L200.182 21.2509C197.671 21.8162 195.4 23.666 193.812 26.4391L192.973 27.9043C190.298 32.5874 185.826 34.4473 181.756 32.5874L155.322 20.2105C154.325 19.7088 153.704 20.6053 154.776 21.3178L199.685 49.4166C203.566 51.9121 208.105 51.3234 211.595 47.8712L247.832 12.0418C248.338 11.5567 248.015 10.4495 247.412 10.5934Z" fill="white"/>
</svg>
