<svg width="309" height="24" viewBox="0 0 309 24" fill="none" xmlns="http://www.w3.org/2000/svg">
<path d="M9 0H309L300 24H0L9 0Z" fill="black"/>
<path d="M20.456 16.9896H16L19.4259 8.1576H23.7193L20.456 16.9896ZM37.5076 8.1576L34.2579 16.9896H29.8154L31.8317 11.8116L27.6094 16.9896H23.7193L22.7027 12.1952L24.214 8.14732H24.7359L26.1286 14.3526L31.1506 8.16102L37.5076 8.1576Z" fill="white"/>
<path d="M53.0613 13.6679L52.4819 15.2398H60.8111L60.1334 17H47.3888L49.9573 10.4111H54.2507L53.7018 11.894H61.1568L60.479 13.6679H53.0613ZM63.4949 8.16804L62.8172 9.94196H50.1302L50.8079 8.16804H63.4949Z" fill="white"/>
<path d="M85.6662 13.483L88.9329 16.9898H84.3175L81.1661 13.483H78.9906L77.6725 16.9898H73.23L75.7409 10.4317H80.18L79.6717 11.7228H85.6391L86.3168 9.97625H75.9138L76.5678 8.23314H91.4438L89.4107 13.4693L85.6662 13.483Z" fill="white"/>
<path d="M112.657 14.2295L117.286 13.6884L116.052 16.9897H101.176L103.701 10.4009H108.13L106.286 15.2295H112.281L112.657 14.2295ZM104.558 8.15777H119.353L118.367 10.7981L113.667 11.483L114.26 9.92485H103.877L104.558 8.15777Z" fill="white"/>
<path d="M163.429 6.00342L159.397 16.9894H154.971L158.539 7.7431L156.726 6L163.429 6.00342ZM160.63 15.2292H168.349L167.672 16.9894H159.979L160.63 15.2292Z" fill="#FFD400"/>
<path d="M189.301 6.00342L185.265 16.9894H180.84L184.411 7.7431L182.595 6L189.301 6.00342ZM186.499 15.2292H194.221L193.544 16.9894H185.851L186.499 15.2292Z" fill="#FFD400"/>
<path d="M212.097 13.6679L211.524 15.2295H219.856L219.179 16.9897H206.421L208.989 10.4009H213.286L212.734 11.8837H220.189L219.511 13.6576L212.097 13.6679ZM222.53 8.16804L221.852 9.94196H209.152L209.83 8.16804H222.53Z" fill="white"/>
<path d="M134.724 13.6679L134.144 15.2398H142.474L141.796 17H129.051L131.62 10.4111H135.917L135.364 11.894H142.819L142.142 13.6679H134.724ZM145.161 8.16804L144.483 9.94196H131.793L132.47 8.16804H145.161Z" fill="white"/>
<path d="M236.718 16.9896H232.262L235.688 8.15763H239.988L236.718 16.9896ZM245.071 8.15763H249.337L246.088 16.9896H240.883L239.012 11.9555L240.449 8.1542H240.71L242.885 13.815L245.071 8.15763Z" fill="white"/>
<path d="M267.016 8.15777L263.678 16.9897H259.222L262.749 8.15777H267.016Z" fill="white"/>
<path d="M282.566 13.6679L281.987 15.2398H290.316L289.638 17H276.89L279.459 10.4111H283.756L283.203 11.894H290.658L289.981 13.6679H282.566ZM293 8.16804L292.322 9.94196H279.635L280.313 8.16804H293Z" fill="white"/>
</svg>
